PathFileType        4      (X/Y/Z)      C:\Users\pc\Desktop\IMUTRC\Sujet_08\Sujet_08_velo_80.trc         
DataRate	CameraRate	NumFrames	NumMarkers	Units	OrigDataRate	OrigDataStartFrame	OrigNumFrames
60.0	60.0	4	64	mm	60.0	706	940
Frame#	Time	pHipOrigin			pRightASI			pLeftASI			pRightCSI			pLeftCSI			pRightIschialTub			pLeftIschialTub			pSacrum			pL5SpinalProcess			pL3SpinalProcess			pT12SpinalProcess			pIJ			pT4SpinalProcess			pT8SpinalProcess			pPX			pC7SpinalProcess			pTopOfHead			pRightAuricularis			pLeftAuricularis			pBackOfHead			pRightAcromion			pLeftAcromion			pRightArmLatEpicondyle			pRightArmMedEpicondyle			pLeftArmLatEpicondyle			pLeftArmMedEpicondyle			pRightUlnarStyloid			pRightRadialStyloid			pRightOlecranon			pLeftUlnarStyloid			pLeftRadialStyloid			pLeftOlecranon			pRightTopOfHand			pRightPinky			pRightBallHand			pLeftTopOfHand			pLeftPinky			pLeftBallHand			pRightGreaterTrochanter			pRightKneeLatEpicondyle			pRightKneeMedEpicondyle			pRightPatella			pLeftGreaterTrochanter			pLeftKneeLatEpicondyle			pLeftKneeMedEpicondyle			pLeftPatella			pRightTibialTub			pRightLatMalleolus			pRightMedMalleolus			pLeftTibialTub			pLeftLatMalleolus			pLeftMedMalleolus			pRightHeelFoot			pRightFirstMetatarsal			pRightFifthMetatarsal			pRightPivotFoot			pRightHeelCenter			pRightToe			pLeftHeelFoot			pLeftFirstMetatarsal			pLeftFifthMetatarsal			pLeftPivotFoot			pLeftHeelCenter			pLeftToe			
		X1	Y1	Z1	X2	Y2	Z2	X3	Y3	Z3	X4	Y4	Z4	X5	Y5	Z5	X6	Y6	Z6	X7	Y7	Z7	X8	Y8	Z8	X9	Y9	Z9	X10	Y10	Z10	X11	Y11	Z11	X12	Y12	Z12	X13	Y13	Z13	X14	Y14	Z14	X15	Y15	Z15	X16	Y16	Z16	X17	Y17	Z17	X18	Y18	Z18	X19	Y19	Z19	X20	Y20	Z20	X21	Y21	Z21	X22	Y22	Z22	X23	Y23	Z23	X24	Y24	Z24	X25	Y25	Z25	X26	Y26	Z26	X27	Y27	Z27	X28	Y28	Z28	X29	Y29	Z29	X30	Y30	Z30	X31	Y31	Z31	X32	Y32	Z32	X33	Y33	Z33	X34	Y34	Z34	X35	Y35	Z35	X36	Y36	Z36	X37	Y37	Z37	X38	Y38	Z38	X39	Y39	Z39	X40	Y40	Z40	X41	Y41	Z41	X42	Y42	Z42	X43	Y43	Z43	X44	Y44	Z44	X45	Y45	Z45	X46	Y46	Z46	X47	Y47	Z47	X48	Y48	Z48	X49	Y49	Z49	X50	Y50	Z50	X51	Y51	Z51	X52	Y52	Z52	X53	Y53	Z53	X54	Y54	Z54	X55	Y55	Z55	X56	Y56	Z56	X57	Y57	Z57	X58	Y58	Z58	X59	Y59	Z59	X60	Y60	Z60	X61	Y61	Z61	X62	Y62	Z62	X63	Y63	Z63	X64	Y64	Z64	
706	11.75	0.0	1249.97582	7.653894434872941E-14	95.93493627109463	1314.93061	133.01966914118205	86.73423289344963	1330.76536	-130.76542837719617	73.25959284845376	1391.5191	115.04743538747745	65.72154303407535	1404.60701	-102.20426132123976	-66.6770810826759	1210.06579	54.57677920065246	-70.44610920380316	1216.52895	-54.04906532348393	-56.058644354651605	1289.07796	4.216358492015172	8.78815377679409	1371.96803	7.374136592837228	79.29034512898156	1463.26022	8.316777797824667	144.76886498900015	1546.15029	8.20796069965912	393.2611131125617	1572.48768	-11.926630630606258	288.1151543694333	1670.24303	2.7775691224039916	218.57041069531107	1620.15351	6.224079923655026	300.97679384992625	1500.10025	-7.522874373481266	333.6782589897314	1702.07411	0.5116680943206026	577.8100456813224	1762.01995	-39.31219938234734	506.0350101866651	1720.17096	42.204006446358186	479.8154863965078	1724.5336	-89.6894965112791	471.64817665452154	1770.42206	-17.867091182723332	350.5843374875884	1636.473	151.79979351292707	319.42566560597595	1652.63091	-158.463456034429	466.43784286782795	1378.26962	133.63562258548652	436.4742234599497	1367.28224	80.86177420125065	422.2667721101774	1387.6412	-170.67221370724323	402.5014979762444	1376.33067	-113.43296723986839	553.6884398843545	1144.3031	137.24181374683607	596.648158133295	1163.53101	115.70635905860975	429.5763635620828	1366.15118	120.00113666724903	497.1655988640182	1152.54363	-203.374353129566	543.5326004373549	1174.19523	-210.8716412333202	388.7098048569393	1374.23014	-139.98134786760934	734.6838614813553	1060.76671	193.7762156363844	643.0955089689173	1066.90671	175.9838821640544	596.9111365858005	1113.60307	135.75411141662775	636.6021591421634	1064.32145	-330.837018765968	565.0877152149127	1070.94619	-271.2494165844443	539.0340271315137	1122.81308	-220.3414144918081	39.79642114235994	1229.2937	154.67591663186758	400.86742819711714	1082.09515	81.56847364835023	394.0519669925559	1087.1041	4.978316845295477	410.8483531201066	1125.55992	42.274075788439646	-5.958050694231929	1222.02264	-158.5539093131599	186.3515669634915	874.95076	-156.22557253066418	207.59643531458408	880.44445	-82.50348153086995	232.5787556835602	900.48025	-128.61545887487398	418.9664381589214	1037.17616	45.922055357293154	157.00867960498454	772.99435	132.37870827760528	151.54320440813072	765.7233	72.529883383165	247.38656130872906	844.57389	-127.15841027602157	153.84925132213377	475.85041	-161.9837446837395	162.85307613817096	472.94199	-102.32979452194795	74.17014152037859	735.34643	114.96776560301726	181.11063297306538	632.74371	59.162195176362474	193.1703245692873	631.61265	132.7703661397991	202.47262232968734	618.04001	92.27374934862189	103.19256372028399	712.56378	109.79075969633345	260.18598011275316	564.07259	82.06342960295112	94.79107165762024	414.61194	-121.2628907682647	241.70955126944392	359.02873	-100.28301359164958	232.38150815413314	355.47399	-174.1301657318256	256.73405586330387	349.33399	-138.29832049319091	130.11904640497687	403.13982	-125.15652329033622	329.8100689730088	318.95712	-145.95323433071584	
707	11.767	0.0	1249.97582	7.653894434872941E-14	95.81115880997547	1315.57693	132.91580751920887	86.94195613739593	1330.11905	-131.0129832994345	73.09598370904257	1392.00384	114.48829559931968	65.78557297775647	1404.12227	-102.78331694854356	-66.6770810826759	1210.38894	54.57677920065246	-70.44610920380316	1216.36737	-54.04906532348393	-56.078560193797614	1289.23954	3.9887194089228553	8.872099559621226	1371.96803	7.022720048625747	79.47815253378187	1463.26022	7.841583792494039	145.08044985491958	1545.98871	7.8366283163016375	393.59261381762724	1571.84136	-12.070323930871456	288.694203568861	1669.91987	2.8416067265295224	219.02568886149572	1619.99193	6.184248245363008	301.28837871584574	1499.77709	-7.894206756838735	334.3810920781543	1701.58937	0.679559659974861	578.4886805043562	1761.69679	-38.10997402320471	506.44616658787027	1719.52465	42.97086305058615	480.6819209638976	1724.21044	-88.96247158534312	472.1831181772902	1769.77574	-16.996366528646124	350.60425332673435	1635.6651	152.02743259601937	320.4599993994644	1652.46933	-158.43925776903987	466.2742337284168	1377.46172	133.07648279732874	436.53824697575465	1366.63592	80.2827262343913	422.8059896313131	1387.47962	-171.0634542693023	402.8130828421639	1376.00751	-113.80429962322592	554.1878321550741	1143.81836	136.3952873581479	597.1475504040147	1163.04627	114.85983266992149	429.6403935057639	1365.50487	119.42208103994523	497.22962237982324	1152.22047	-203.95340109642538	543.7204078421552	1173.87207	-211.3468352386508	389.02138972285877	1374.06856	-140.35268025096687	734.9755305081287	1060.44355	193.1772441699346	643.614810650907	1066.58356	175.36500251890297	597.1828974338723	1113.27991	134.92750729496163	636.6861049249903	1063.83671	-331.1884353101795	565.1716609977399	1070.46145	-271.6008331286558	539.1179729143407	1122.32834	-220.6928310360196	41.03847051935022	1231.5558	154.45255354714226	406.195604371605	1096.47569	78.23507126452061	398.36573164057734	1100.67674	1.8483476187246133	414.1918215787652	1139.94046	38.54085909705201	-7.096238449249071	1221.37632	-158.45432368955375	179.09135040701202	871.07286	-156.62259550874077	201.22685925132782	876.40497	-83.20780694862289	225.83784723694643	895.79446	-129.63136915854636	425.7045565086221	1051.87986	41.662470888635745	175.12868809557443	776.54909	127.12333035404446	169.66321932659673	769.60119	67.27449779915973	239.50747153497423	838.75704	-128.0747425965322	133.65779923597444	473.26515	-162.052259275855	142.6616163915672	470.19514	-102.39831554193952	94.5267027357235	734.70011	109.0579587822561	207.26199705060583	638.88371	52.630710953092404	219.09404956373544	637.75266	126.25879775567502	229.30690365650474	625.14949	85.68251760791377	124.81109015176521	713.53325	103.88522887393927	289.95962550398366	574.73681	74.98565533538917	72.44702028997747	414.45036	-121.02838657951524	217.21717661868465	353.37346	-101.00745583817145	207.5377233870385	350.30346	-174.93856142161903	231.6626320131169	343.19398	-139.0868003438384	107.29980103200343	401.84719	-125.10982650638704	303.66448731148586	310.07027	-147.22118418506093	
708	11.783	0.0	1249.97582	7.653894434872941E-14	96.1028214088728	1316.22325	132.3168437132035	86.77834699798474	1329.31115	-131.57212308759227	73.47159209076706	1392.65015	113.53791524910282	65.80976481526949	1403.47595	-103.81764308158753	-66.76102686550304	1210.7121	54.92819574486395	-70.53005498663029	1216.04421	-53.69764877927245	-55.97469857182446	1289.23954	3.8649419478036906	8.93612950330235	1371.96803	6.443664421321952	79.74989929353319	1463.09864	7.0149809033963395	145.57983569776323	1545.82713	6.990109588057929	394.09199966047083	1571.19505	-12.91684265911518	289.31737330069984	1669.43513	2.0989419598145274	219.52508113221546	1619.66877	5.337721856674861	301.6440776863003	1499.13077	-9.072233850592305	335.02417122126315	1700.94305	0.16454163679661815	579.3351992326	1761.21205	-37.610588180361056	507.025222215174	1718.55517	43.03489299426732	481.8201163793592	1723.88728	-89.06205078107324	472.98981288768636	1769.12943	-16.952252424110988	350.89592235350784	1634.53405	151.4284611295696	321.4345792476386	1652.30775	-159.09796909248325	466.52607107689823	1376.49225	132.0222331646943	436.7701684850901	1365.82803	79.00083751866455	423.18160444091365	1386.99489	-172.0138422799636	403.18869122388844	1375.52277	-114.75467997344276	554.8750254027182	1143.17204	135.07357462457352	597.8546594908047	1162.56153	113.7657590194395	429.8723085872232	1364.53539	118.1401999846629	497.748930489689	1151.73573	-204.5722884020212	544.2198077733194	1173.38733	-212.19335519946287	389.3969981045832	1373.58382	-141.30306060118372	735.7224712732107	1060.12039	192.53844868563718	644.4456971988161	1066.09882	174.3747904903941	598.0137839817814	1112.6336	133.93729526645276	637.3291840680993	1063.19039	-331.70345333335774	565.8147465687248	1069.97672	-272.11585881227853	539.7411362183036	1121.8436	-221.43548814229015	42.38438275088201	1234.30265	154.1054270896183	410.38559155850714	1108.91728	75.0012404159766	401.41753750033854	1111.66412	-1.2859052666576247	416.70868591575777	1152.05889	34.535881557592504	-8.338289058807703	1220.73001	-158.23097469314897	175.82476163590047	869.13391	-157.25432489775807	198.85090454556345	874.6276	-84.14683111687214	223.0905601478246	893.69393	-130.88197819271505	431.55204722085165	1064.80619	37.71017353876582	194.92611595063764	776.71067	121.37712501225005	189.46064075378385	770.24751	61.52830011780975	234.93907820898997	835.36388	-129.16603257797726	114.31287230593495	474.3962	-161.6213956855713	123.6481913991615	470.84146	-102.11113116360045	116.45679994480366	730.49905	102.78109680907276	234.84321271462915	642.11529	45.4006913885313	246.57141003366166	640.82266	119.15254799178867	257.57102890936056	629.18897	78.39274409803852	147.98324563084842	711.10956	97.38502433222725	321.0592813759203	582.49261	67.3331142946426	51.03343343340552	417.84352	-120.64591309213361	193.07621727956854	350.7882	-101.64796639018675	182.83763192020905	348.36451	-175.41545640634703	206.94261827926533	340.28556	-139.79132675121429	85.18338108700854	403.78614	-124.89524458465968	277.5189056499629	304.09184	-148.48913403940605	
709	11.8	0.0	1249.97582	7.653894434872941E-14	96.29062881367311	1316.86956	131.84164970787285	86.61473143069745	1328.66484	-132.13125521530563	73.63948365642133	1393.13489	112.83508216067986	65.62624749715671	1402.82964	-104.60441552496154	-66.61733356523786	1211.03526	55.259696449929415	-70.51013914748427	1215.88263	-53.47000969618013	-55.97469857182446	1289.23954	3.8649419478036906	9.000153019107378	1372.12961	5.864616454462588	80.02165248116061	1463.09864	6.188370353854215	145.8515965458351	1545.66555	6.163505466391906	394.4676144700714	1570.38715	-13.867230669776479	290.06431406578184	1668.95039	1.4601464755171376	220.1482444361783	1619.34561	4.595064750404305	301.7920469849324	1498.80761	-10.002698361663185	335.7711184142213	1700.29674	-0.47426150794519617	580.161809782142	1760.72732	-37.33883499273362	507.5843555754557	1717.74728	42.87129151530055	482.60688882273314	1723.56413	-89.24556809918597	473.67272247651886	1768.48311	-17.012006369425144	351.2914530022544	1633.72615	150.7057122020006	322.1815264405967	1651.98459	-159.73677223722513	466.9016794586227	1375.84593	131.07185281447747	437.145784527259	1365.18171	78.0504635963238	423.7009061229033	1386.67173	-172.63272192511496	403.4604444115158	1375.03803	-115.58129052298483	555.7258277897733	1142.68731	134.311001679157	598.7054683057358	1162.23838	113.00317841357848	430.2479233968238	1363.88908	117.18981197400163	498.3920096327978	1151.41258	-205.08730642519947	544.8628792559837	1173.06417	-212.70837965051717	389.916306214449	1373.09908	-141.92194790677954	736.3854726833416	1059.95881	192.2510620851068	645.192644391774	1065.77566	173.73598734565226	598.9684479908099	1112.31044	133.05094485991708	637.9722696390842	1062.86724	-332.21847901698044	566.4578257118336	1069.65356	-272.6308768354566	540.3842217892886	1121.52045	-221.95051382591288	43.39879304477999	1236.56476	153.901979844039	412.89817346925656	1117.15781	72.25823575309785	403.01956307871865	1118.61202	-3.9492465729523643	417.89955509293287	1159.65311	31.105683647069824	-8.917344686111505	1220.08369	-158.29500463683004	176.18045417847895	869.13391	-158.43234433106724	199.78565914332182	874.78918	-85.2608282669446	223.65398236222546	893.85551	-132.307560208707	436.05361284579726	1073.53146	34.10501796730873	214.5556381517261	773.47909	116.33375399144693	208.73875283853687	767.33909	56.40097565373508	233.55761795797758	833.74809	-130.53614307489812	96.80896102402778	478.43568	-161.12220440447447	106.59955062299454	474.71936	-101.65177798867178	138.34279713766924	723.06642	97.31092831371721	260.97466095302354	641.95371	38.641568082168874	273.0343525492455	640.17634	112.24973904560551	284.5931176409783	629.6737	71.32631835199975	170.7598756564928	705.61587	91.60754696931922	350.54554782706487	586.53209	59.59234504482581	31.460867420273708	424.953	-120.1951336627039	170.54864093336857	351.43452	-102.20024107268739	159.85477740782446	349.9803	-175.92789941055565	183.71222293296293	340.44714	-140.51149423193752	65.01184483999525	409.44141	-124.73612009368287	252.53142758260304	301.345	-149.62903043426496	
